<svg xmlns="http://www.w3.org/2000/svg" width="252" height="252" viewBox="34 20 200 200">
<!-- SVG created with Arrow, by QuiverAI (https://quiver.ai) -->
  <path d="m251.3 0.27h-250.7v245.5h250.7v-245.5z" fill="#0B232E"/>
  <path d="m251.2 239.5v-10.41l-3.16-3.16v-3.16l-3.16-3.16v-6.33l-3.16-3.16v-9.57l-3.16-3.16v-6.37h9.58l3.16-3.16v-12.74l-3.16-3.16v-6.41l-3.16-3.16v-6.4l3.16-3.16v-6.4l-3.26-3.16v-6.41l3.16-3.16v-15.91l-3.16-3.16v-6.41l-3.16-3.16v-6.4l9.48-3.16v-12.74l-3.16-3.16v-6.4l-3.16-3.16v-9.57l-3.16-3.16v-12.74l-3.16-3.16v-6.4l-3.16-3.16v-6.41l-3.16-3.16v-6.4l3.16-3.16v-9.57l-3.16-3.13h-9.58l-3.16 3.16h-6.4l-3.16-3.16h-9.58l-3.16 3.16h-6.4l-3.16-3.16h-9.58l-3.16 3.16h-6.4l-3.16-3.16h-9.58l-3.16 3.16h-6.4l-3.16-3.16h-9.58l-3.16 3.16h-6.4l-3.16-3.16h-9.58l-3.16 3.16h-6.4l-3.16-3.16h-9.58l-3.16 3.16h-6.4l-3.16-3.16h-9.58l-3.16 3.16h-6.4l-3.16-3.16h-9.58l-3.16 3.16h-6.4l-3.16-3.16h-9.58l-3.16 3.16h-6.4l-3.16-3.16h-8.63v38.15l3.16 3.16v3.16l-3.16 3.16v9.57l3.16 3.16v6.41l-3.16 3.16v12.74l3.16 3.16v6.4l-3.16 3.16v6.41l3.16 3.16v6.4l-3.16 3.16v6.41l3.16 3.16v6.4l3.16 3.16v3.16l-3.16 3.16v9.57l3.16 3.16v6.41l-3.16 3.16v9.57l3.16 3.16v6.41l-3.16 3.16v6.41l3.16 3.16v6.4l3.16 3.16v3.16l3.16 3.16v6.41l3.16 3.16v6.41l-3.16 3.16v9.57l3.16 3.16h9.11l3.16-3.16h6.4l3.16 3.16h9.58l3.16-3.16h3.16l3.16 3.16h9.58l3.16-3.16h6.4l3.16 3.16h9.58l3.16-3.16h6.4l3.16 3.16h9.58l3.16-3.16h6.4l3.16 3.16h9.58l3.16-3.16h6.4l3.16 3.16h9.58l3.16-3.16h6.4l3.16 3.16h9.58l3.16-3.16h6.4l3.16 3.16h9.58l3.16-3.16h6.4l3.16 3.16h9.58l3.16-3.16h6.4l3.16 3.16h9.58l3.16-3.16h2.76v0.75z" fill="#326E6A" opacity=".1"/>
  <path d="m244.9 241.9-3.16-3.16v3.16h3.16z" fill="#B8D2D2" opacity=".3"/>
  <path d="m241.8 227.1v-3.16h-3.16v3.16h3.16z" fill="#B8D2D2" opacity=".5"/>
  <path d="m228.5 230.2v-3.16h-3.16v3.16h3.16z" fill="#B8D2D2" opacity=".5"/>
  <path d="m231.6 217.5v-3.16h-3.16v3.16h3.16z" fill="#B8D2D2" opacity=".5"/>
  <path d="m216.1 220.7v-3.16h-3.16v3.16h3.16z" fill="#B8D2D2" opacity=".5"/>
  <path d="m209.7 223.8v-3.16h-3.16v3.16h3.16z" fill="#B8D2D2" opacity=".5"/>
  <path d="m203.3 214.2v-3.16h-3.16v3.16h3.16z" fill="#B8D2D2" opacity=".5"/>
  <path d="m185 217.4v-3.16h-3.16v3.16h3.16z" fill="#B8D2D2" opacity=".5"/>
  <path d="m178.6 214.2v-3.16h-3.16v3.16h3.16z" fill="#B8D2D2" opacity=".5"/>
  <path d="m162.5 204.7v-3.16h-2.18v3.16h2.18z" fill="#B8D2D2" opacity=".5"/>
  <path d="m162.5 36.62v-3.16h-2.18v3.16h2.18z" fill="#B8D2D2" opacity=".5"/>
  <path d="m120 210v-2.16h-2.16v2.16h2.16z" fill="#B8D2D2" opacity=".5"/>
  <path d="m93.21 200.4v-2.16h-2.16v2.16h2.16z" fill="#B8D2D2" opacity=".5"/>
  <path d="m14.85 197.4v-2.16h-2.16v2.16h2.16z" fill="#B8D2D2" opacity=".5"/>
  <path d="m241.8 6.32v-3.16h-3.16v3.16h3.16z" fill="#B8D2D2" opacity=".5"/>
  <path d="m233.3 15.86v-3.16h-2.16v3.16h2.16z" fill="#B8D2D2" opacity=".5"/>
  <path d="m228.5 20.06v-2.16h-1.06v2.16h1.06z" fill="#B8D2D2" opacity=".5"/>
  <path d="m209.1 31.83v-2.16h-1.06v2.16h1.06z" fill="#B8D2D2" opacity=".5"/>
  <path d="m215 31.83v-3.16h-2.16v3.16h2.16z" fill="#B8D2D2" opacity=".5"/>
  <path d="m218.1 34.99v-3.16h-3.16v3.16h3.16z" fill="#B8D2D2" opacity=".5"/>
  <path d="m221.3 38.15v-2.08h-2.08v2.08h2.08z" fill="#B8D2D2" opacity=".5"/>
  <path d="m203.9 41.31v-3.16h-3.16v3.16h3.16z" fill="#B8D2D2" opacity=".5"/>
  <path d="m200.7 46.01v-3.16h-2.16v3.16h2.16z" fill="#B8D2D2" opacity=".5"/>
  <path d="m250.3 33.93v-3.16h-3.16v3.16h3.16z" fill="#B8D2D2" opacity=".5"/>
  <path d="m159.3 21.18v-2.16h-2.16v2.16h2.16z" fill="#B8D2D2" opacity=".5"/>
  <path d="m24.76 16.21v-6.15h-2.16v6.15h2.16z" fill="#B8D2D2" opacity=".5"/>
  <path d="m24.76 22.26v-2.2h-2.08v2.2h2.08z" fill="#B8D2D2" opacity=".5"/>
  <path d="m3.01 41.31v-2.16h-2.16v2.16h2.16z" fill="#B8D2D2" opacity=".5"/>
  <path d="m15.91 102.2v-3.21h-3.16v3.16h3.16v0.05z" fill="#326E6A" opacity=".5"/>
  <path d="m19.07 115v-2.16h-2.16v2.16h2.16z" fill="#326E6A" opacity=".5"/>
  <path d="m25.48 115v-2.16h-3.26v2.16h3.26z" fill="#326E6A" opacity=".5"/>
  <path d="m12.75 118.1v-3.16h-3.16v3.16h3.16z" fill="#326E6A" opacity=".5"/>
  <path d="m25.48 133.6v-2.16h-2.16v2.16h2.16z" fill="#326E6A" opacity=".5"/>
  <path d="m32.96 223.8v-3.16h-4.2v3.16h4.2z" fill="#B8D2D2" opacity=".5"/>
  <path d="m33.64 226.6v-1.66h-1.66v1.66h1.66z" fill="#B8D2D2" opacity=".5"/>
  <path d="m55.22 220.7v-4.2h-2.16v4.2h2.16z" fill="#326E6A" opacity=".5"/>
  <path d="m89.64 235h5.93v-2.16h-5.93v2.16z" fill="#326E6A" opacity=".5"/>
  <path d="m105.9 26.12v-3.16h-3.16v3.16h3.16z" fill="#326E6A" opacity=".5"/>
  <path d="m99.52 20.06v-3.16h-3.16v3.16h3.16z" fill="#326E6A" opacity=".5"/>
  <path d="m93.12 16.9v-2.16h-3.16v2.16h3.16z" fill="#326E6A" opacity=".5"/>
  <path d="m83.54 31.49v-2.16h-2.16v2.16h2.16z" fill="#326E6A" opacity=".5"/>
  <path d="m89.94 31.49v-2.16h-2.16v2.16h2.16z" fill="#326E6A" opacity=".5"/>
  <path d="m105.9 32.55v-2.16h-2.16v2.16h2.16z" fill="#326E6A" opacity=".5"/>
  <path d="m149.8 223.8v-6.41h-2.69v6.41h2.69z" fill="#326E6A" opacity=".5"/>
  <path d="m137 227.1v-3.16h-3.16v3.16h3.16z" fill="#326E6A" opacity=".5"/>
  <path d="m130.6 223.8v-3.16h-3.16v3.16h3.16z" fill="#326E6A" opacity=".5"/>
  <path d="m104.9 223.8v-3.16h-3.16v3.16h3.16z" fill="#326E6A" opacity=".5"/>
  <path d="m89.3 223.8v-3.16h-3.16v3.16h3.16z" fill="#326E6A" opacity=".5"/>
  <path d="m82.9 210v-3.16h-3.16v3.16h3.16z" fill="#326E6A" opacity=".5"/>
  <path d="m76.5 203.6v-2.16h-2.16v2.16h2.16z" fill="#326E6A" opacity=".5"/>
  <path d="m44.64 210v-3.16h-3.16v3.16h3.16z" fill="#326E6A" opacity=".5"/>
  <path d="m47.8 213.2v-2.16h-2.16v2.16h2.16z" fill="#326E6A" opacity=".5"/>
  <path d="m165.6 220.7v-3.16h-2.16v3.16h2.16z" fill="#326E6A" opacity=".5"/>
  <path d="m172 223.8v-3.16h-3.16v3.16h3.16z" fill="#326E6A" opacity=".5"/>
  <path d="m190.8 223.8v-3.16h-3.16v3.16h3.16z" fill="#326E6A" opacity=".5"/>
  <path d="m194.1 230.2v-5.34h-3.72v5.34h3.72z" fill="#326E6A" opacity=".5"/>
  <path d="m168.8 236.6v-3.16h-3.16v3.16h3.16z" fill="#326E6A" opacity=".5"/>
  <path d="m162.4 233.5v-3.16h-3.16v3.16h3.16z" fill="#326E6A" opacity=".5"/>
  <path d="m35.72 57.22v133.4h83.87v3.55h24.8v-3.16h88.37v-133.8h-10.9l-5.12-7.51h-31.71v-2.08h-39.89l-2.94 2.94h-3.16l-3.16 4.56h-6.4l-2.16-3.16h-3.16l-3.08-4.34h-38.1v2.08h-31.92l-2.65 5.42h-12.69v2.09z" fill="#030007"/>
  <path d="m37.24 59.06v129.4h17.32v1.2h62.31v-1.8h6.25v3.4h17.79v-3.4h5.79v1.44h66.19v-0.84h17.02v-129.4h-8.85l-3.92-5.87h-2.16v-1.8h-29.96v-1.32h-37.72l-2.32 2.32h-3.16l-3.16 4.82h-5.58v-2.16h-2.52v2.16h-2.6l-2.72-4.18h-3.16l-2.04-2.6h-35.82v1.88h-31.8l-2.4 2.82h-2.16v2.08h-10.62v1.85z" fill="#7A2920"/>
  <path d="m37.24 59.06v113.6h1.72v14.68h15.6v1.15h62.31v-2.48h5.17v2.32h8.04v-2h7.04v2.32h8.78v-2h4.64v1.4h62.15v-0.92h15.75v-14.47h1.68v-113.6h-7.48l-3.16-3.92h-2.16v-2.08h-32.3v-1.32h-36.16l-2.64 2.64h-3.16l-3.64 4.68h-4.18v-2.16h-2.6v2.16h-3.12l-3.16-4.68h-3.16l-2.08-2.07h-36.94v0.88h-30.32l-3.84 4.03h-2.16v1.32h-10.62v0.52z" fill="#661A14"/>
  <path d="m40.16 61.14v123.5h14.88v1.6h61.07v-2.08h4.72v2.44h8.05v-2.08h5.68v1.72h8.78v-2.08h6.12v1.32h63.95v-0.84h13.79v-123.5h-4.13l-3.64-3.92h-2.16v-2.6h-2.16v-1.6h-28.8v-1.32h-37.49l-2.6 2.64h-3.16l-4.44 4.68h-3.96v-2.16h-2.1v2.16h-2.56l-3.64-4.68h-3.16l-2.08-2.08h-36.06v0.88h-31.2l-3.92 4.08h-2.16v1.32h-4.46l-3.16 2.6z" fill="#B76846"/>
  <path d="m43.28 63.02v119.5h12.74v1.6h60.09v-2.08h6.12v3.04h6.12v-3.64h4.16v3.04h6.61v-2.44h7.14v1.32h72.83v-2.28h4.68v-118.1h-3.16v-2.08h-2.16v-3.72h-2.16v-2.6h-2.16v-1.6h-27.82v-1.32h-37.49l-2.6 2.64h-3.16l-4.44 4.68h-3.38v-2.16h-2.6v2.16h-3.12l-3.16-4.68h-3.16l-2.08-2.08h-36.06v0.88h-31.2l-3.92 4.08v1.84h-2.16v2.08l-4.5 1.88z" fill="#CE9060"/>
  <path d="m46.16 60.74v117.5h2.08v1.8h37.3v1.84h32.37v-2.16h8.17v2.8h2.32v-123.5l-2.04-2.84h-3.16l-2.08-2.6h-6.4v-1.84h-30.54v1.32h-27.48l-2.84 3.12h-3.16v2.84l-4.54 1.68z" fill="#E5B075"/>
  <path d="m50.54 60.74v113.1h3.16v1.16h2.16v1.08h24.16v-2.16h41.14v1.48h4.16v2.24h1.84v-118.6l-2.94-2.84h-2.16v-2.16h-2.64v-2.28h-34.36v1.32h-28.92l-2.28 3.12h-1.6l-1.72 4.52z" fill="#F5C98D"/>
  <path d="m53.86 60.74v110.2h3.16v2.08h64.06v3h5.16v1.6h1.6v-118.6l-3.64-2.84h-1.04v-2.16h-2.08v-1.8h-36.06v0.88h-28l-3.16 3.08v4.52z" fill="#FCE9B8"/>
  <path d="m133.1 59.06v122.4l2.64-3.2h3.36v-4.37h47.5v1.08h25.19v-1.96h2.64v-115.8l-1.32-1-1.6-2.16h-26.51v-2.28h-34.6l-2.64 2.64h-3.16l-4.44 4.68h-3.92l-3.14-0.04z" fill="#F5C98D"/>
  <path d="m136.4 59.06v118.6l2.76-1.68h3.16v-2.12h67v-2.94h3.16v-12.74h1.6v-101l-2.64-1-1.6-2.16h-24.78v-2.28h-33l-2.64 2.64h-3.16l-4.44 4.68-5.42-0.05z" fill="#FCE9B8"/>
  <path d="m136.4 180.3v3.64h6.9v2.28h81.67v-3.64h-5.84v-2.64h-37.88v-1.84h-34.99v2.2h-9.86z" fill="#7A2920"/>
  <path d="m46.16 178.3v3.16h39.38v0.68h33.57v3.16h6.25v-2.8l-2.64-2.16h-2.16v-2.04h-14.54v-6.41h-3.16v1.6h-35.88v2.64h-10.36v1.08h-7.3v1.09h-3.16z" fill="#7A2920"/>
  <path d="m140 179.8v2.16h6.74v-2.16h35.47v2.64h35.44v-2.64h-31.3v-5.84h-41.69v2.64h-4.66v3.2z" fill="#994B3A"/>
  <path d="m48.24 178.3v1.8h16.78v-1.8h11.2v-1.6h-20.36v1.08h-7.62v0.52z" fill="#994B3A"/>
  <path d="m226.6 76.22v96.46h3.3v-96.46h-3.3z" fill="#661A14"/>
  <path d="m36.56 76.22v96.46h3.3v-96.46h-3.3z" fill="#661A14"/>
  <path d="m226.6 173.1v12.74h3.16v-12.74h-3.16z" fill="#661A14"/>
  <path d="m226.6 59.06v15.56h3.3v-15.56h-3.3z" fill="#994B3A"/>
  <path d="m36.56 59.06v14.56h3.3v-14.56h-3.3z" fill="#994B3A"/>
  <path d="m207 170.3v-3.16h3.16v2.16h3.16v6.4h-7.96v-5.4h1.64z" fill="#FCE9B8"/>
  <path d="m142.5 168.3v3.16h4.16v-3.16h-4.16z" fill="#FCE9B8"/>
  <path d="m122.2 168.3v2.64h3.16v-2.64h-3.16z" fill="#FCE9B8"/>
  <path d="m190.8 58.7v9.57h1.56v6.4h2.24l3.16-3.16h10.74v-2.16h2.24v-10.65h-19.94zm17.7 8.61h-1.38v2.08h-10.2v2.16h-2.36v-5.44h-2.64v-5.37h16.58v6.57z" fill="#030007"/>
  <path d="m196.7 66.11v-1.56h-1.56v1.56h1.56z" fill="#030007"/>
  <path d="m200.4 66.11v-1.56h-1.56v1.56h1.56z" fill="#030007"/>
  <path d="m204.1 66.11v-1.56h-1.56v1.56h1.56z" fill="#030007"/>
  <path d="m180.3 62.42v2.09h2.76v-1.6h1.88v2.16h-1.69v1.68h-1.43v5.36h2.08v-4.44h2.16v-2.16h1.08v-3.16h-1.6v-1.6h-3.64v1.67h-1.6z" fill="#030007"/>
  <path d="m68.97 60.74v3h38v-3h-38z" fill="#030007"/>
  <path d="m61.18 68.71v5.2h5.2v-1.08h1.36v-4.12h-4.4v-0.6h-2.16v0.6z" fill="#030007"/>
  <path d="m71.51 71.35v2.56h27.83v-2.56h-27.83z" fill="#030007"/>
  <path d="m146.6 72.71v11.72h13.03v-11.6h-2.52v3.08h-2.32v-2.6h-2.64v2.44h-2.44v-3.04h-3.11z" fill="#532822"/>
  <path d="m173 102.7v-1.64h1.6v-0.92h2.76v0.92h1.24v2.16h1.16v2.4h0.92v4h-10.08v-4h1.24v-2.92h1.16z" fill="#2A6D38"/>
  <path d="m146.9 109.9v-1.36h6.86v1.36h2.2v1.84h1.12v2.96h-1.88v2.64h-8.94v-2.64h-1.8v-3.44h1.2v-1.36h1.24z" fill="#316634"/>
  <path d="m147.2 117.4h5.92v3.26h-5.92v-3.26z" fill="#3A1D14"/>
  <path d="m172.1 114.4h7.32v0.8h-3.08v4.48h-1.32v-4.44h-2.92v-0.84z" fill="#030007"/>
  <path d="m163.2 80.06v2.64h17.76v3.24h7.2v-3.92h-1.8v-1.96h-23.16z" fill="#030007"/>
  <path d="m182.4 78.74v5.68h4.8v-5.68h-4.8z" fill="#030007"/>
  <path d="m183.6 80.22v2.69h2.44v-2.69h-2.44z" fill="#FDC578"/>
  <path d="m113.4 78.1v5.92h5.32v-5.92h-5.32z" fill="#2A6D38"/>
  <path d="m119.8 80.06v2.64h24.71v-2.64h-24.71z" fill="#030007"/>
  <path d="m117.1 85.91v23.13h1.6v-23.13h-1.6z" fill="#030007"/>
  <path d="m151.4 88.83v9.32h2.48v-9.32h-2.48z" fill="#030007"/>
  <path d="m160 87.51-1.56 1.56 4.88 4.88v1.52h1.84v2.28h1.87v2.92h2.72v-4.44h-1.64v-2.24h-1.8v-2.12l-6.31-4.36z" fill="#030007"/>
  <path d="m180.1 87.27v2.6h-1.56v2.76h-1.72v5.68h2.4v-4.68h1.52v-3.24h1.48v-3.12h-2.12z" fill="#030007"/>
  <path d="m189.2 83.91v2.64h1.96v2.44h2.16v2.16h2.16v2.52h3.16v2.64h3v12.74h-1.6v-11.78h-2.4v-4.48h-2.64v-2.84h-2.64v-2.88h-3.16v-3.16z" fill="#030007"/>
  <path d="m71.51 80.06v2.56h30.19v-2.56h-30.19z" fill="#030007"/>
  <path d="m63.78 81.23v2.56h2.56v-2.56h-2.56z" fill="#030007"/>
  <path d="m63.78 86.79v2.16h2.56v-2.16h-2.56z" fill="#030007"/>
  <path d="m71.51 85.43v2.16h24.44v-2.16h-24.44z" fill="#030007"/>
  <path d="m63.78 93.51v2.16h2.56v-2.16h-2.56z" fill="#030007"/>
  <path d="m71.51 93.51v2.56h32.95v-2.56h-32.95z" fill="#030007"/>
  <path d="m63.78 101.9v2.16h2.56v-2.16h-2.56z" fill="#030007"/>
  <path d="m71.51 101.4v2.64h27.83v-2.64h-27.83z" fill="#030007"/>
  <path d="m63.78 107v2.16h2.56v-2.16h-2.56z" fill="#030007"/>
  <path d="m71.51 107v2.08h30.71v-2.08h-30.71z" fill="#030007"/>
  <path d="m183.9 112.3v2.16h8.44v-2.16h-8.44z" fill="#030007"/>
  <path d="m160.2 115.2v2.16h6.16v-2.16h-6.16z" fill="#030007"/>
  <path d="m112.7 114.5v3.44h4.88v-3.44h-4.88z" fill="#2A6D38"/>
  <path d="m119.2 115v2.32h22.71v-2.32h-22.71z" fill="#030007"/>
  <path d="m63.78 115.2v2.16h2.56v-2.16h-2.56z" fill="#030007"/>
  <path d="m71.51 115.2v2.16h22.12v-2.16h-22.12z" fill="#030007"/>
  <path d="m199.8 111.3-7.39 10.64v0.64h17.79v-1.44l-6.6-9.84h-3.8z" fill="#532822" stroke="#030007" stroke-miterlimit="10" stroke-width="1.2"/>
  <path d="m200.8 117.4 1.52-3.2 1.8 3.2h-3.32z" fill="#996459"/>
  <path d="m71.51 122.4v2.44h30.19v-2.44h-30.19z" fill="#030007"/>
  <path d="m63.78 123.1v2.16h2.4v-2.16h-2.4z" fill="#030007"/>
  <path d="m158.4 122.4v2.16h1.6v1.84h1.84v1.68h1.92v1.84h1.84v1.72h1.84v2h2.36v-2.52h-1.8v-1.88h-1.92v-1.84h-1.88v-1.72h-1.84v-1.84h-1.84v-1.44h-2.12z" fill="#030007"/>
  <path d="m175.3 120.1v12.16h2.48v-12.16h-2.48z" fill="#030007"/>
  <path d="m189.7 125.3v2.44h-2.92v2.12h-1.84v2.12h-2.08v2.08h-2.64v2.08h2.88v-2.44h2.12v-2.44h2.28v-2.16h4.56v-3.8h-2.36z" fill="#030007"/>
  <path d="m199.8 124.6v19.79h2.52v-19.79h-2.52z" fill="#030007"/>
  <path d="m63.78 129.5v2.16h2.4v-2.16h-2.4z" fill="#030007"/>
  <path d="m71.51 129.9v2.8h24.52v-2.8h-24.52z" fill="#030007"/>
  <path d="m149 124.6v11.48h1.96v2h3.28v-2.96h-2.84v-10.52h-2.4z" fill="#030007"/>
  <path d="m61.18 138.5v5.2h4.44v-1.08h0.76v-4.12h-5.2zm2.64 3.76v-1.68h1.08v1.68h-1.08z" fill="#030007"/>
  <path d="m172.6 134.3v5.68h6.2v-5.68h-6.2z" fill="#030007"/>
  <path d="m174.4 135.8v2.96h2.64v-2.96h-2.64z" fill="#FDC578"/>
  <path d="m71.51 141v2.72h30.19v-2.72h-30.19z" fill="#030007"/>
  <path d="m168 141v2.64h-2.4v2.36h-2.16v2.08h-3.28v3.08h2.56v-2.44h2.64v-2.12h2.08v-2.12h2.12v-3.48h-1.56z" fill="#030007"/>
  <path d="m182.3 141v2.64h2.28v2.32h2.4v2.12h2.32v2.24h2.68v-2.24h-2.44v-2.64h-2.4v-2.12h-2.12v-2.32h-2.72z" fill="#030007"/>
  <path d="m194.6 147.4v2.16h1.72v9.47h-1.72v3.16h14.39v-3.16h-1.64v-8.31h1.8v-3.32h-14.55zm11.35 11.39v1.36h-8.51v-1.36h8.51zm-0.24-8.39v1.6h-1.72v5.19h-6.23v-5.31h-1.36v-2.64h10.75v1.16h-1.44z" fill="#532822"/>
  <path d="m198.7 152v3.44h5.92v-3.44h-5.92z" fill="#FDC578"/>
  <path d="m61.18 146.7v6.32h5.2v-6.32h-5.2z" fill="#030007"/>
  <path d="m71.23 149.8v2.56h24.8v-2.56h-24.8z" fill="#030007"/>
  <path d="m113.3 149.6v6.48h6.28v-6.48h-6.28z" fill="#030007"/>
  <path d="m115.6 151.5v2.96h2.96v-2.96h-2.96z" fill="#F78131"/>
  <path d="m119.4 152v2.76h27.31v-2.76h-27.31z" fill="#030007"/>
  <path d="m146.6 158.7v1.16h4.32v2.44h2.16v-2.4h6.91v-2.76l-5.6-7.96h-2.64l-5.15 7.48v2.04z" fill="#532822"/>
  <path d="m162.6 155.8v2.43h29.85v-2.43h-29.85z" fill="#030007"/>
  <path d="m61.18 155.5v6.39h5.2v-3.92h-2.84v-2.47h-2.36z" fill="#030007"/>
</svg>
